name Visual3d_SIMM_grf.mot
datacolumns 19
datarows 49
range 0.860000 1.340000
endheader
time	ground_force_vx	ground_force_vy	ground_force_vz	ground_force_px	ground_force_py	ground_force_pz	l_ground_force_vx	l_ground_force_vy	l_ground_force_vz	l_ground_force_px	l_ground_force_py	l_ground_force_pz	ground_torque_x	ground_torque_y	ground_torque_z	l_ground_torque_x	l_ground_torque_y	l_ground_torque_z
0.860000	22.769499	137.124619	-0.492593	-0.206374	-0.003663	-0.294078	-43.157383	126.431084	-7.662267	0.183941	-0.004557	-0.184391	-0.000884	0.842361	-0.001833	-0.005257	0.439512	0.008784
0.870000	28.479269	167.859451	1.119443	-0.209487	-0.003920	-0.294044	-36.055294	100.007927	-5.982288	0.181553	-0.005209	-0.185299	-0.000981	0.934565	-0.002034	-0.003174	0.265348	0.005303
0.880000	33.752518	196.682724	3.178817	-0.213230	-0.003973	-0.294716	-27.864096	74.493088	-4.148954	0.179867	-0.005450	-0.186499	-0.001008	0.960494	-0.002090	-0.000999	0.083523	0.001669
0.890000	38.087746	223.356201	5.311669	-0.217339	-0.003846	-0.295964	-19.562714	51.767056	-2.419828	0.178357	-0.005389	-0.188054	-0.000966	0.920176	-0.002002	0.000989	-0.082664	-0.001652
0.900000	41.031078	247.138779	7.244612	-0.221602	-0.003583	-0.297583	-12.141966	33.059048	-1.006679	0.176488	-0.005169	-0.189964	-0.000865	0.823839	-0.001793	0.002573	-0.215121	-0.004299
0.910000	42.358276	266.933594	8.854996	-0.225928	-0.003242	-0.299374	0.000000	0.000000	0.000000	0.000000	0.000000	0.000000	-0.000719	0.684459	-0.001489	0.000000	0.000000	0.000000
0.920000	42.152763	281.697479	10.095369	-0.230336	-0.002873	-0.301201	0.000000	0.000000	0.000000	0.000000	0.000000	0.000000	-0.000540	0.514087	-0.001119	0.000000	0.000000	0.000000
0.930000	40.726913	290.704926	11.004598	-0.234924	-0.002515	-0.303019	0.000000	0.000000	0.000000	0.000000	0.000000	0.000000	-0.000347	0.330315	-0.000719	0.000000	0.000000	0.000000
0.940000	38.491520	293.716919	11.723624	-0.239837	-0.002186	-0.304880	0.000000	0.000000	0.000000	0.000000	0.000000	0.000000	-0.000158	0.150325	-0.000327	0.000000	0.000000	0.000000
0.950000	35.827930	291.037292	12.388131	-0.245243	-0.001895	-0.306870	0.000000	0.000000	0.000000	0.000000	0.000000	0.000000	0.000021	-0.020177	0.000044	0.000000	0.000000	0.000000
0.960000	33.026203	283.504639	13.067113	-0.251282	-0.001642	-0.309058	0.000000	0.000000	0.000000	0.000000	0.000000	0.000000	0.000192	-0.183202	0.000399	0.000000	0.000000	0.000000
0.970000	30.277428	272.320709	13.752506	-0.258031	-0.001423	-0.311477	0.000000	0.000000	0.000000	0.000000	0.000000	0.000000	0.000358	-0.341201	0.000742	0.000000	0.000000	0.000000
0.980000	27.678955	258.839966	14.367599	-0.265478	-0.001233	-0.314115	0.000000	0.000000	0.000000	0.000000	0.000000	0.000000	0.000520	-0.495457	0.001078	0.000000	0.000000	0.000000
0.990000	25.264187	244.386536	14.812145	-0.273503	-0.001072	-0.316930	0.000000	0.000000	0.000000	0.000000	0.000000	0.000000	0.000676	-0.643456	0.001400	0.000000	0.000000	0.000000
1.000000	23.014418	230.127777	15.006842	-0.281876	-0.000939	-0.319856	0.000000	0.000000	0.000000	0.000000	0.000000	0.000000	0.000817	-0.778598	0.001694	0.000000	0.000000	0.000000
1.010000	20.886314	216.997345	14.926628	-0.290263	-0.000834	-0.322795	0.000000	0.000000	0.000000	0.000000	0.000000	0.000000	0.000936	-0.891501	0.001940	0.000000	0.000000	0.000000
1.020000	18.836678	205.645050	14.597378	-0.298265	-0.000755	-0.325624	0.000000	0.000000	0.000000	0.000000	0.000000	0.000000	0.001022	-0.973116	0.002117	0.000000	0.000000	0.000000
1.030000	16.829563	196.435196	14.083888	-0.305480	-0.000699	-0.328211	0.000000	0.000000	0.000000	0.000000	0.000000	0.000000	0.001070	-1.018747	0.002217	0.000000	0.000000	0.000000
1.040000	14.842425	189.475861	13.471888	-0.311586	-0.000666	-0.330440	0.000000	0.000000	0.000000	0.000000	0.000000	0.000000	0.001081	-1.029992	0.002241	0.000000	0.000000	0.000000
1.050000	12.878010	184.667892	12.847731	-0.316417	-0.000655	-0.332234	0.000000	0.000000	0.000000	0.000000	0.000000	0.000000	0.001064	-1.013221	0.002205	0.000000	0.000000	0.000000
1.060000	10.953041	181.766357	12.277184	-0.319984	-0.000662	-0.333573	0.000000	0.000000	0.000000	0.000000	0.000000	0.000000	0.001026	-0.976944	0.002126	0.000000	0.000000	0.000000
1.070000	9.088406	180.436432	11.796579	-0.322437	-0.000684	-0.334502	0.000000	0.000000	0.000000	0.000000	0.000000	0.000000	0.000976	-0.929429	0.002022	0.000000	0.000000	0.000000
1.080000	7.313233	180.314758	11.412242	-0.324017	-0.000714	-0.335090	0.000000	0.000000	0.000000	0.000000	0.000000	0.000000	0.000921	-0.876900	0.001908	0.000000	0.000000	0.000000
1.090000	5.654001	181.063049	11.105935	-0.324988	-0.000745	-0.335396	0.000000	0.000000	0.000000	0.000000	0.000000	0.000000	0.000864	-0.822941	0.001791	0.000000	0.000000	0.000000
1.100000	4.123409	182.404877	10.846664	-0.325590	-0.000769	-0.335457	0.000000	0.000000	0.000000	0.000000	0.000000	0.000000	0.000807	-0.768768	0.001673	0.000000	0.000000	0.000000
1.110000	2.707194	184.137115	10.609529	-0.326004	-0.000785	-0.335294	0.000000	0.000000	0.000000	0.000000	0.000000	0.000000	0.000751	-0.715546	0.001557	0.000000	0.000000	0.000000
1.120000	1.369175	186.126175	10.386951	-0.326348	-0.000796	-0.334940	0.000000	0.000000	0.000000	0.000000	0.000000	0.000000	0.000699	-0.665637	0.001448	0.000000	0.000000	0.000000
1.130000	0.053574	188.286911	10.181074	-0.326683	-0.000807	-0.334431	0.000000	0.000000	0.000000	0.000000	0.000000	0.000000	0.000654	-0.622560	0.001355	0.000000	0.000000	0.000000
1.140000	-1.303887	190.565094	9.998472	-0.327033	-0.000821	-0.333813	0.000000	0.000000	0.000000	0.000000	0.000000	0.000000	0.000619	-0.589662	0.001283	0.000000	0.000000	0.000000
1.150000	-2.766190	192.943924	9.850080	-0.327403	-0.000832	-0.333142	0.000000	0.000000	0.000000	0.000000	0.000000	0.000000	0.000598	-0.569236	0.001239	0.000000	0.000000	0.000000
1.160000	-4.385749	195.455215	9.749842	-0.327792	-0.000842	-0.332478	0.000000	0.000000	0.000000	0.000000	0.000000	0.000000	0.000591	-0.562544	0.001224	0.000000	0.000000	0.000000
1.170000	-6.195779	198.175552	9.713708	-0.328203	-0.000855	-0.331868	0.000000	0.000000	0.000000	0.000000	0.000000	0.000000	0.000600	-0.570996	0.001242	0.000000	0.000000	0.000000
1.180000	-8.210360	201.204239	9.756986	-0.328626	-0.000881	-0.331327	0.000000	0.000000	0.000000	0.000000	0.000000	0.000000	0.000626	-0.595753	0.001296	0.000000	0.000000	0.000000
1.190000	-10.429772	204.619965	9.891540	-0.329053	-0.000931	-0.330847	0.000000	0.000000	0.000000	0.000000	0.000000	0.000000	0.000669	-0.637560	0.001387	0.000000	0.000000	0.000000
1.200000	-12.847698	208.446243	10.124095	-0.329496	-0.001005	-0.330414	0.000000	0.000000	0.000000	0.000000	0.000000	0.000000	0.000731	-0.696581	0.001516	0.000000	0.000000	0.000000
1.210000	-15.458518	212.627136	10.452622	-0.329972	-0.001092	-0.330014	0.000000	0.000000	0.000000	0.000000	0.000000	0.000000	0.000811	-0.772520	0.001681	0.000000	0.000000	0.000000
1.220000	-18.258085	217.015915	10.862250	-0.330512	-0.001179	-0.329630	0.000000	0.000000	0.000000	0.000000	0.000000	0.000000	0.000908	-0.864765	0.001882	0.000000	0.000000	0.000000
1.230000	-21.241396	221.365799	11.319266	-0.331150	-0.001258	-0.329241	0.000000	0.000000	0.000000	0.000000	0.000000	0.000000	0.001020	-0.971783	0.002115	0.000000	0.000000	0.000000
1.240000	-24.396799	225.343811	11.770499	-0.331920	-0.001332	-0.328812	0.000000	0.000000	0.000000	0.000000	0.000000	0.000000	0.001145	-1.090929	0.002374	0.000000	0.000000	0.000000
1.250000	-27.696278	228.547104	12.150615	-0.332839	-0.001411	-0.328311	0.000000	0.000000	0.000000	0.000000	0.000000	0.000000	0.001279	-1.217975	0.002650	0.000000	0.000000	0.000000
1.260000	-31.090111	230.526199	12.392266	-0.333915	-0.001502	-0.327710	0.000000	0.000000	0.000000	0.000000	0.000000	0.000000	0.001415	-1.347640	0.002932	0.000000	0.000000	0.000000
1.270000	-34.494709	230.802856	12.433549	-0.335139	-0.001606	-0.326984	0.000000	0.000000	0.000000	0.000000	0.000000	0.000000	0.001548	-1.473920	0.003207	0.000000	0.000000	0.000000
1.280000	-37.778313	228.890701	12.225305	-0.336481	-0.001718	-0.326113	0.000000	0.000000	0.000000	0.000000	0.000000	0.000000	0.001669	-1.589731	0.003459	0.000000	0.000000	0.000000
1.290000	-40.752552	224.312912	11.731925	-0.337893	-0.001822	-0.325091	0.000000	0.000000	0.000000	0.000000	0.000000	0.000000	0.001772	-1.687427	0.003672	0.000000	0.000000	0.000000
1.300000	-43.174667	216.639694	10.936800	-0.339301	-0.001900	-0.323916	0.000000	0.000000	0.000000	0.000000	0.000000	0.000000	0.001847	-1.759282	0.003828	0.000000	0.000000	0.000000
1.310000	-44.762005	205.535706	9.845232	-0.340600	-0.001939	-0.322605	0.000000	0.000000	0.000000	0.000000	0.000000	0.000000	0.001888	-1.798112	0.003913	0.000000	0.000000	0.000000
1.320000	-45.223621	190.830124	8.488437	-0.341655	-0.001940	-0.321189	0.000000	0.000000	0.000000	0.000000	0.000000	0.000000	0.001888	-1.798469	0.003913	0.000000	0.000000	0.000000
1.330000	-44.312954	172.608627	6.923024	-0.342283	-0.001925	-0.319713	0.000000	0.000000	0.000000	0.000000	0.000000	0.000000	0.001846	-1.758058	0.003825	0.000000	0.000000	0.000000
1.340000	-41.883213	151.351822	5.244043	-0.342267	-0.001926	-0.318200	0.000000	0.000000	0.000000	0.000000	0.000000	0.000000	0.001760	-1.676481	0.003648	0.000000	0.000000	0.000000
